<?xml version="1.0" standalone="no"?><!DOCTYPE svg PUBLIC "-//W3C//DTD SVG 1.1//EN" "http://www.w3.org/Graphics/SVG/1.1/DTD/svg11.dtd"><svg t="1589445759401" class="icon" viewBox="0 0 1024 1024" version="1.1" xmlns="http://www.w3.org/2000/svg" p-id="1148" xmlns:xlink="http://www.w3.org/1999/xlink" width="200" height="200"><defs><style type="text/css"></style></defs><path d="M972.8 526.336C972.8 604.16 936.96 696.32 763.904 696.32H665.6c-11.264 0-20.48-9.216-20.48-20.48s9.216-20.48 20.48-20.48h98.304C878.592 655.36 931.84 614.4 931.84 526.336c0-91.136-75.776-165.888-167.936-165.888-20.48 0-38.912 3.072-58.368 10.24-9.216 3.072-20.48-1.024-24.576-10.24-40.96-76.8-119.808-124.928-206.848-124.928-107.52 0-199.68 71.68-225.28 175.104-1.024 5.12-5.12 10.24-9.216 13.312-5.12 3.072-10.24 3.072-16.384 2.048-7.168-2.048-15.36-3.072-25.6-3.072C139.264 421.888 92.16 468.992 92.16 526.336 92.16 631.808 181.248 650.24 248.832 655.36H348.16c11.264 0 20.48 9.216 20.48 20.48s-9.216 20.48-20.48 20.48h-101.376C84.992 685.056 51.2 598.016 51.2 526.336c0-79.872 65.536-145.408 146.432-145.408 6.144 0 12.288 0 17.408 1.024C250.88 270.336 354.304 194.56 474.112 194.56c96.256 0 184.32 50.176 234.496 132.096 18.432-5.12 36.864-7.168 55.296-7.168 114.688 0 208.896 93.184 208.896 206.848zM562.176 729.088c-7.168 7.168-16.384 15.36-29.696 25.6V645.12c0-11.264-9.216-20.48-20.48-20.48s-20.48 9.216-20.48 20.48v110.592c-13.312-10.24-23.552-19.456-30.72-26.624-8.192-8.192-20.48-8.192-28.672 0s-8.192 20.48 0 28.672c14.336 14.336 35.84 31.744 67.584 55.296 4.096 3.072 8.192 4.096 12.288 4.096s9.216-1.024 12.288-4.096c32.768-25.6 53.248-41.984 66.56-55.296 8.192-8.192 8.192-20.48 0-28.672s-20.48-8.192-28.672 0zM618.496 563.2c-33.792-7.168-69.632-10.24-106.496-10.24s-73.728 4.096-106.496 10.24c-11.264 2.048-18.432 13.312-15.36 24.576 2.048 11.264 13.312 18.432 24.576 15.36 30.72-6.144 63.488-10.24 98.304-10.24s67.584 3.072 98.304 10.24h4.096c9.216 0 18.432-6.144 20.48-16.384 1.024-10.24-6.144-20.48-17.408-23.552z" p-id="1149"></path></svg>